# xmcd
# 
# Track frame offsets:
#     182
#     18470
#     37507
#     53695
#     71375
#     94602
#     117132
#     138355
#     157795
#     179740
#     198420
#     220087
#     239120
# 
# Disc length: 3497
# 
# Revision: 9
# Processed by: cddbd v1.5.2PL0 Copyright (c) Steve Scherf et al.
# Submitted via: BonkEnc v1.0.15
# 
DISCID=a80da70d
DTITLE=Diana Ross - The Force Behind The Power (TOCP-6840)
DYEAR=1991
DGENRE=R&B
TTITLE0=Change Of Heart
TTITLE1=When You Tell Me That You Love Me
TTITLE2=Battlefield
TTITLE3=Blame It On The Sun
TTITLE4=You're Gonna Love It
TTITLE5=Heavy Weather
TTITLE6=The Force Behind The Power
TTITLE7=Heart (Don't Change My Mind)
TTITLE8=Waiting In The Wings
TTITLE9=You And I
TTITLE10=One Shining Moment
TTITLE11=If We Hold On Together
TTITLE12=No Matter What you Do
EXTD=0077779715428
EXTT0=
EXTT1=
EXTT2=
EXTT3=
EXTT4=
EXTT5=
EXTT6=
EXTT7=
EXTT8=
EXTT9=
EXTT10=
EXTT11=
EXTT12=
PLAYORDER=
